<?xml version="1.0" encoding="utf-8"?>
<!-- Generator: Adobe Illustrator 23.0.0, SVG Export Plug-In . SVG Version: 6.00 Build 0)  -->
<svg version="1.1" id="圖層_1" xmlns="http://www.w3.org/2000/svg" xmlns:xlink="http://www.w3.org/1999/xlink" x="0px" y="0px"
	 viewBox="0 0 559.77 812.43" style="enable-background:new 0 0 559.77 812.43;" xml:space="preserve">
<style type="text/css">
	.st0{fill:none;stroke:#231815;stroke-miterlimit:10;}
	.st1{fill:none;stroke:#231815;stroke-width:12;stroke-miterlimit:10;}
	.st2{fill:#FFFFFF;}
	.st3{fill:none;stroke:#231815;stroke-width:7;stroke-miterlimit:10;}
	.st4{fill:#3F3B00;}
	.st5{fill:#231815;}
	.st6{fill:none;stroke:#231815;stroke-width:10;stroke-miterlimit:10;}
	.st7{fill:none;stroke:#231815;stroke-width:5;stroke-miterlimit:10;}
	.st8{stroke:#231815;stroke-width:5;stroke-miterlimit:10;}
</style>
<g>
	<g>
		<path class="st2" d="M115.66,657.01h18.78l4.47,149.18h-15.88l-2.91-124.35h-0.45l-25.5,74.92l-25.5-74.92h-0.45l-2.91,124.35
			H49.69l4.47-149.18h18.56l21.47,63.29L115.66,657.01z"/>
		<path class="st2" d="M141.57,808.75h-21.04l-2.65-113.62l-23.69,69.6l-23.68-69.6l-2.66,113.62H47.04l4.63-154.32h22.9
			l19.63,57.86l19.63-57.86h23.12L141.57,808.75z M125.55,803.62h10.72l-4.32-144.04h-14.45L94.19,728.3l-23.31-68.72H56.65
			l-4.32,144.04h10.5l2.91-124.35h4.8l23.66,69.52l23.66-69.52h4.8L125.55,803.62z"/>
	</g>
	<g>
		<path class="st2" d="M185.22,689.66h72.69v13.42h-57.7v34.89h47.64v13.42h-47.64v41.38h57.7v13.42h-72.69V689.66z"/>
		<path class="st2" d="M260.48,808.75h-77.83V687.09h77.83v18.56h-57.7v29.75h47.64v18.56h-47.64v36.24h57.7V808.75z M187.79,803.62
			h67.55v-8.28h-57.7v-46.51h47.64v-8.28h-47.64v-40.03h57.7v-8.28h-67.55V803.62z"/>
	</g>
	<g>
		<path class="st2" d="M333.06,703.08h-32.21v-13.42h78.73v13.42h-31.54v103.1h-14.98V703.08z"/>
		<path class="st2" d="M350.62,808.75h-20.12v-103.1h-32.21v-18.56h83.87v18.56h-31.54V808.75z M335.63,803.62h9.85v-103.1h31.54
			v-8.28h-73.59v8.28h32.21V803.62z"/>
	</g>
	<g>
		<path class="st2" d="M442.66,774.43l-10.96,34.67l-14.76-5.37l36.68-114.06h19.23l36.68,114.06l-14.76,5.37l-10.74-34.67H442.66z
			 M463.23,707.11l-16.55,53.9h33.1L463.23,707.11z"/>
		<path class="st2" d="M493.11,812.43L482.14,777h-37.6l-11.2,35.43l-19.6-7.13l38.01-118.2h22.98l38.01,118.2L493.11,812.43z
			 M420.14,802.16l9.92,3.61l10.72-33.9h45.15l10.5,33.9l9.9-3.6l-35.35-109.92h-15.49L420.14,802.16z M483.26,763.58h-40.05
			l20.03-65.22L483.26,763.58z M450.16,758.44h26.15l-13.08-42.58L450.16,758.44z"/>
	</g>
</g>
<path class="st2" d="M557.3,568.51L293.38,115.32l59.05-102.44L330.18,0.05l-51.7,89.68L226.22,0l-22.2,12.93l59.67,102.46
	L2.43,568.58c-3.25,5.63-3.24,12.62,0.01,18.25c3.25,5.63,9.31,9.12,15.81,9.12h163.14h196.99h163.14c6.51,0,12.58-3.51,15.83-9.16
	C560.59,581.15,560.58,574.14,557.3,568.51z M193.05,570.26l86.83-144.68l86.83,144.68H193.05z M396.26,570.26
	c-0.39-1.08-0.88-2.13-1.47-3.15l-98.41-163.97c-3.41-5.85-9.73-9.48-16.49-9.48c-6.73,0-13.02,3.59-16.44,9.38l-98.55,164.21
	c-0.56,0.97-1.02,1.97-1.4,3.01H31.12l247.47-429.28l249.99,429.28H396.26z"/>
</svg>
