<?xml version="1.0" encoding="utf-8"?>
<!-- Generator: Adobe Illustrator 23.0.0, SVG Export Plug-In . SVG Version: 6.00 Build 0)  -->
<svg version="1.1" id="圖層_1" xmlns="http://www.w3.org/2000/svg" xmlns:xlink="http://www.w3.org/1999/xlink" x="0px" y="0px"
	 viewBox="0 0 1000 1000" style="enable-background:new 0 0 1000 1000;" xml:space="preserve">
<style type="text/css">
	.st0{fill:#3F3B00;}
	.st1{fill:none;stroke:#231815;stroke-miterlimit:10;}
	.st2{fill:none;stroke:#231815;stroke-width:12;stroke-miterlimit:10;}
	.st3{fill:#FFFFFF;}
	.st4{fill:none;stroke:#231815;stroke-width:7;stroke-miterlimit:10;}
	.st5{fill:#231815;}
	.st6{fill:none;stroke:#231815;stroke-width:10;stroke-miterlimit:10;}
	.st7{fill:none;stroke:#231815;stroke-width:5;stroke-miterlimit:10;}
	.st8{stroke:#231815;stroke-width:5;stroke-miterlimit:10;}
</style>
<rect class="st0" width="1000" height="1000"/>
<g>
	<g>
		<path class="st3" d="M335.78,743.95h18.78l4.47,149.18h-15.88l-2.91-124.35h-0.45l-25.5,74.92l-25.5-74.92h-0.45l-2.91,124.35
			H269.8l4.47-149.18h18.56l21.47,63.29L335.78,743.95z"/>
		<path class="st3" d="M361.68,895.7h-21.04l-2.65-113.62l-23.69,69.6l-23.68-69.6l-2.66,113.62h-20.81l4.63-154.32h22.9
			l19.63,57.86l19.63-57.86h23.12L361.68,895.7z M345.67,890.56h10.72l-4.32-144.04h-14.45l-23.31,68.72L291,746.52h-14.23
			l-4.32,144.04h10.5l2.91-124.35h4.8l23.66,69.52l23.66-69.52h4.8L345.67,890.56z"/>
	</g>
	<g>
		<path class="st3" d="M405.34,776.61h72.69v13.42h-57.7v34.89h47.64v13.42h-47.64v41.38h57.7v13.42h-72.69V776.61z"/>
		<path class="st3" d="M480.6,895.7h-77.83V774.04h77.83v18.56h-57.7v29.75h47.64v18.56h-47.64v36.24h57.7V895.7z M407.91,890.56
			h67.55v-8.28h-57.7v-46.51h47.64v-8.28h-47.64v-40.03h57.7v-8.28h-67.55V890.56z"/>
	</g>
	<g>
		<path class="st3" d="M553.18,790.03h-32.21v-13.42h78.73v13.42h-31.54v103.1h-14.98V790.03z"/>
		<path class="st3" d="M570.73,895.7h-20.12v-103.1H518.4v-18.56h83.87v18.56h-31.54V895.7z M555.75,890.56h9.85v-103.1h31.54v-8.28
			h-73.59v8.28h32.21V890.56z"/>
	</g>
	<g>
		<path class="st3" d="M662.77,861.37l-10.96,34.67l-14.76-5.37l36.68-114.06h19.23l36.68,114.06l-14.76,5.37l-10.74-34.67H662.77z
			 M683.35,794.05l-16.55,53.9h33.1L683.35,794.05z"/>
		<path class="st3" d="M713.23,899.37l-10.97-35.43h-37.6l-11.2,35.43l-19.6-7.13l38.01-118.2h22.98l38.01,118.2L713.23,899.37z
			 M640.25,889.1l9.92,3.61l10.72-33.9h45.15l10.5,33.9l9.9-3.6l-35.35-109.92H675.6L640.25,889.1z M703.38,850.52h-40.05
			l20.03-65.22L703.38,850.52z M670.27,845.38h26.15l-13.08-42.58L670.27,845.38z"/>
	</g>
</g>
<path class="st3" d="M777.38,669.22L513.46,216.03l59.05-102.44l-22.26-12.83l-51.7,89.68l-52.25-89.73l-22.2,12.93l59.67,102.46
	l-261.25,453.2c-3.25,5.63-3.24,12.62,0.01,18.25c3.25,5.63,9.31,9.12,15.81,9.12h163.14h196.99H761.6c6.51,0,12.58-3.51,15.83-9.16
	C780.68,681.86,780.66,674.85,777.38,669.22z M413.13,670.97l86.83-144.68l86.83,144.68H413.13z M616.34,670.97
	c-0.39-1.08-0.88-2.13-1.47-3.15l-98.41-163.97c-3.41-5.85-9.73-9.48-16.49-9.48c-6.73,0-13.02,3.59-16.44,9.38l-98.55,164.21
	c-0.56,0.97-1.02,1.97-1.4,3.01H251.2l247.47-429.28l249.99,429.28H616.34z"/>
</svg>
